<svg width="670" height="99" viewBox="0 0 670 99" fill="none" xmlns="http://www.w3.org/2000/svg">
    <rect x="553" y="3" width="6" height="96" fill="#FA6900"/>
    <path d="M0 24.3335H2.46974L9.1125 63.9292C9.39638 66.2 9.70864 68.4423 10.0493 70.6562C10.4467 72.8702 10.7874 75.1125 11.0713 77.3833H11.2416C11.9797 75.1125 12.6894 72.8702 13.3707 70.6562C14.052 68.4423 14.7049 66.2 15.3294 63.9292L22.8238 39.0648H25.8045L33.4693 63.9292C34.0938 66.2 34.7183 68.4707 35.3429 70.7414C36.0242 72.9554 36.7055 75.1693 37.3868 77.3833H37.7274C38.0113 75.1693 38.3236 72.9554 38.6642 70.7414C39.0617 68.4707 39.4023 66.2 39.6862 63.9292L46.0735 24.3335H48.458L39.1752 80.619H35.5984L26.9968 52.4337C26.5426 50.7874 26.1168 49.1695 25.7194 47.58C25.322 45.9905 24.8961 44.3726 24.4419 42.7264H24.1864C23.7322 44.3726 23.278 45.9905 22.8238 47.58C22.4264 49.1695 21.9722 50.7874 21.4612 52.4337L13.1152 80.619H9.53831L0 24.3335Z" fill="#361C1C"/>
    <path d="M62.7256 42.5238H65.7419L66.1388 51.8889H66.2975C68.3613 48.873 70.9013 46.4127 73.9176 44.5079C76.9868 42.5503 80.4264 41.5714 84.2365 41.5714C85.5065 41.5714 86.7765 41.6772 88.0465 41.8889C89.3694 42.1005 90.6394 42.5238 91.8565 43.1587L90.9834 46.254C89.6075 45.7778 88.4169 45.4339 87.4115 45.2222C86.4061 45.0106 85.1625 44.9048 83.6808 44.9048C80.5058 44.9048 77.4631 45.8042 74.5526 47.6032C71.6951 49.4021 68.9434 52.4709 66.2975 56.8095V80.619H62.7256V42.5238Z" fill="#361C1C"/>
    <path d="M121.671 80.619V48.1587H104.287V41.8095H129.529V80.619H121.671ZM124.925 34.2698C123.232 34.2698 121.83 33.7672 120.718 32.7619C119.607 31.7037 119.051 30.328 119.051 28.6349C119.051 26.9418 119.607 25.5926 120.718 24.5873C121.83 23.5291 123.232 23 124.925 23C126.619 23 128.021 23.5291 129.132 24.5873C130.243 25.5926 130.799 26.9418 130.799 28.6349C130.799 30.328 130.243 31.7037 129.132 32.7619C128.021 33.7672 126.619 34.2698 124.925 34.2698Z" fill="#361C1C"/>
    <path d="M176.171 81.5714C172.255 81.5714 169.159 80.8836 166.884 79.5079C164.661 78.1323 163.074 76.2275 162.121 73.7937C161.169 71.3598 160.693 68.5291 160.693 65.3016V48.1587H150.056V42.2857L161.01 41.8095L162.042 29.5873H168.551V41.8095H186.887V48.1587H168.551V65.3016C168.551 67.4709 168.842 69.3228 169.424 70.8571C170.006 72.3386 170.985 73.4497 172.361 74.1905C173.737 74.8783 175.589 75.2222 177.917 75.2222C179.663 75.2222 181.251 75.0899 182.68 74.8254C184.108 74.5079 185.484 74.1111 186.807 73.6349L188.395 79.3492C186.648 79.9312 184.77 80.4339 182.759 80.8571C180.801 81.3333 178.605 81.5714 176.171 81.5714Z" fill="#361C1C"/>
    <path d="M218.765 81.5714C214.796 81.5714 211.197 80.7778 207.97 79.1905C204.742 77.5503 202.175 75.2222 200.27 72.2063C198.365 69.1376 197.413 65.4339 197.413 61.0952C197.413 56.8624 198.365 53.2381 200.27 50.2222C202.175 47.1534 204.662 44.7989 207.731 43.1587C210.801 41.5185 214.081 40.6984 217.574 40.6984C221.437 40.6984 224.691 41.4921 227.337 43.0794C230.036 44.6667 232.073 46.8624 233.449 49.6667C234.878 52.418 235.592 55.5926 235.592 59.1905C235.592 60.0899 235.539 60.963 235.434 61.8095C235.381 62.6032 235.301 63.2646 235.195 63.7937H204.001V57.2857H229.322L227.575 59.3492C227.575 55.4868 226.702 52.6032 224.956 50.6984C223.263 48.7407 220.881 47.7619 217.812 47.7619C215.643 47.7619 213.685 48.2645 211.938 49.2698C210.245 50.2751 208.896 51.7831 207.89 53.7936C206.885 55.7513 206.382 58.1852 206.382 61.0952C206.382 64.1111 206.938 66.5979 208.049 68.5556C209.213 70.5132 210.801 71.9947 212.811 73C214.875 74.0053 217.257 74.5079 219.955 74.5079C222.019 74.5079 223.924 74.2169 225.67 73.6349C227.417 73.0529 229.163 72.2593 230.909 71.254L234.005 76.9683C231.941 78.291 229.613 79.4021 227.02 80.3016C224.427 81.1482 221.675 81.5714 218.765 81.5714Z" fill="#361C1C"/>
    <path d="M245.166 29.0317H265.168C267.92 29.0317 270.539 29.3227 273.027 29.9048C275.567 30.4339 277.763 31.3862 279.615 32.7619C281.52 34.0847 283.028 35.8571 284.139 38.0794C285.25 40.2487 285.806 42.9471 285.806 46.1746C285.806 49.3492 285.224 52.0741 284.06 54.3492C282.949 56.6243 281.44 58.5026 279.535 59.9841C277.63 61.4127 275.434 62.4974 272.947 63.2381C270.46 63.9259 267.867 64.2698 265.168 64.2698H258.818V80.619H245.166V29.0317ZM264.533 53.4762C267.232 53.4762 269.217 52.8413 270.487 51.5714C271.81 50.3016 272.471 48.5026 272.471 46.1746C272.471 43.8466 271.783 42.2063 270.407 41.254C269.031 40.3016 267.073 39.8254 264.533 39.8254H258.818V53.4762H264.533Z" fill="#361C1C"/>
    <path d="M291.093 60.7778C291.093 57.4974 291.649 54.5608 292.76 51.9683C293.924 49.3757 295.459 47.2063 297.364 45.4603C299.269 43.6614 301.439 42.3122 303.873 41.4127C306.36 40.4603 308.926 39.9841 311.572 39.9841C314.165 39.9841 316.679 40.4603 319.113 41.4127C321.6 42.3122 323.796 43.6614 325.701 45.4603C327.606 47.2063 329.141 49.3757 330.305 51.9683C331.469 54.5608 332.051 57.4974 332.051 60.7778C332.051 64.0582 331.469 66.9947 330.305 69.5873C329.141 72.1799 327.606 74.3757 325.701 76.1746C323.796 77.9206 321.6 79.2698 319.113 80.2222C316.679 81.1217 314.165 81.5714 311.572 81.5714C308.926 81.5714 306.36 81.1217 303.873 80.2222C301.439 79.2698 299.269 77.9206 297.364 76.1746C295.459 74.3757 293.924 72.1799 292.76 69.5873C291.649 66.9947 291.093 64.0582 291.093 60.7778ZM305.063 60.7778C305.063 63.7937 305.566 66.2011 306.572 68C307.577 69.746 309.244 70.619 311.572 70.619C313.901 70.619 315.567 69.746 316.573 68C317.578 66.2011 318.081 63.7937 318.081 60.7778C318.081 57.7619 317.578 55.381 316.573 53.6349C315.567 51.836 313.901 50.9365 311.572 50.9365C309.244 50.9365 307.577 51.836 306.572 53.6349C305.566 55.381 305.063 57.7619 305.063 60.7778Z" fill="#361C1C"/>
    <path d="M339.72 60.9365C339.72 57.709 340.275 54.8254 341.386 52.2857C342.551 49.746 344.085 47.6032 345.99 45.8571C347.895 44.0582 350.065 42.6825 352.499 41.7302C354.986 40.7778 357.553 40.3016 360.198 40.3016C363.215 40.3016 365.887 40.7778 368.215 41.7302C370.544 42.6825 372.475 44.0053 374.01 45.6984C375.544 47.3915 376.709 49.4021 377.502 51.7302C378.296 54.0053 378.693 56.4921 378.693 59.1905C378.693 60.2487 378.64 61.2275 378.534 62.127C378.428 62.9735 378.323 63.6349 378.217 64.1111H351.705C352.287 67.127 353.61 69.3228 355.674 70.6984C357.738 72.0212 360.225 72.6825 363.135 72.6825C364.935 72.6825 366.628 72.4709 368.215 72.0476C369.856 71.5714 371.549 70.8836 373.295 69.9841L377.105 76.9683C374.883 78.3968 372.396 79.5344 369.644 80.381C366.893 81.1746 364.194 81.5714 361.548 81.5714C358.479 81.5714 355.621 81.1217 352.975 80.2222C350.329 79.2698 348.028 77.9206 346.07 76.1746C344.112 74.3757 342.551 72.2063 341.386 69.6667C340.275 67.127 339.72 64.2169 339.72 60.9365ZM368.136 56.8889C368.136 54.6138 367.527 52.7619 366.31 51.3333C365.093 49.9048 363.135 49.1905 360.437 49.1905C358.32 49.1905 356.415 49.8254 354.722 51.0952C353.081 52.3122 352.023 54.2434 351.547 56.8889H368.136Z" fill="#361C1C"/>
    <path d="M396.76 50.381H386.917V41.7302L397.315 41.254L398.823 30.7778H408.428V41.254H425.017V50.381H408.428V64.1905C408.428 67.2063 409.089 69.3492 410.412 70.619C411.735 71.836 413.825 72.4444 416.683 72.4444C418.218 72.4444 419.62 72.3122 420.89 72.0476C422.213 71.7831 423.456 71.4392 424.621 71.0159L426.684 79.4286C424.938 79.9577 422.98 80.4339 420.811 80.8571C418.641 81.3333 416.286 81.5714 413.746 81.5714C410.624 81.5714 407.978 81.1482 405.809 80.3016C403.639 79.455 401.866 78.291 400.49 76.8095C399.167 75.2751 398.215 73.4497 397.633 71.3333C397.051 69.2169 396.76 66.8624 396.76 64.2698V50.381Z" fill="#361C1C"/>
    <path d="M441.497 80.619V41.8095H448.005L448.64 50.8571H448.879C450.889 47.6825 453.35 45.2222 456.26 43.4762C459.171 41.7302 462.346 40.8571 465.786 40.8571C467.267 40.8571 468.617 40.9894 469.834 41.254C471.051 41.5185 472.241 41.9153 473.406 42.4444L471.659 49.1905C470.336 48.7143 469.199 48.3968 468.246 48.2381C467.294 48.0265 466.077 47.9206 464.595 47.9206C461.79 47.9206 459.092 48.7143 456.499 50.3016C453.906 51.8889 451.524 54.6402 449.355 58.5556V80.619H441.497Z" fill="#361C1C"/>
    <path d="M484.408 94.1111C484.884 94.2698 485.44 94.4021 486.075 94.5079C486.763 94.6667 487.451 94.746 488.139 94.746C491.102 94.746 493.536 93.7937 495.441 91.8889C497.346 89.9841 498.881 87.5767 500.045 84.6667L501.394 81.3333L482.9 42.5238H486.551L497.664 66.4921C498.404 68.0794 499.225 69.8519 500.124 71.8095C501.077 73.7143 502.003 75.5132 502.902 77.2063H503.22C503.961 75.5132 504.702 73.7143 505.442 71.8095C506.236 69.9048 506.977 68.1323 507.665 66.4921L517.587 42.5238H521L503.061 85.381C502.479 86.9683 501.738 88.5026 500.839 89.9841C499.992 91.5185 498.96 92.8677 497.743 94.0318C496.526 95.2487 495.097 96.2011 493.457 96.8889C491.869 97.6296 490.07 98 488.059 98C487.265 98 486.445 97.9206 485.598 97.7619C484.752 97.6561 484.037 97.4709 483.455 97.2064L484.408 94.1111Z" fill="#361C1C"/>
    <path d="M594.366 23V0.695999H600.69C602.209 0.695999 603.535 0.877332 604.668 1.24C605.824 1.60267 606.719 2.18067 607.354 2.974C608.011 3.76733 608.34 4.82133 608.34 6.136C608.34 7.24667 608.023 8.25533 607.388 9.162C606.753 10.046 605.767 10.658 604.43 10.998V11.134C606.062 11.3833 607.331 11.95 608.238 12.834C609.145 13.718 609.598 14.9307 609.598 16.472C609.598 17.9227 609.247 19.1353 608.544 20.11C607.841 21.0847 606.855 21.81 605.586 22.286C604.339 22.762 602.877 23 601.2 23H594.366ZM597.188 10.08H600.214C602.118 10.08 603.478 9.774 604.294 9.162C605.133 8.55 605.552 7.62067 605.552 6.374C605.552 5.17267 605.11 4.32267 604.226 3.824C603.365 3.32533 602.073 3.076 600.35 3.076H597.188V10.08ZM597.188 20.62H600.792C602.696 20.62 604.169 20.2913 605.212 19.634C606.277 18.954 606.81 17.8547 606.81 16.336C606.81 14.9533 606.289 13.9673 605.246 13.378C604.226 12.766 602.741 12.46 600.792 12.46H597.188V20.62ZM622.607 23.408C620.952 23.408 619.445 23.068 618.085 22.388C616.747 21.708 615.682 20.722 614.889 19.43C614.095 18.1153 613.699 16.54 613.699 14.704C613.699 12.9133 614.095 11.372 614.889 10.08C615.682 8.788 616.713 7.802 617.983 7.122C619.275 6.41933 620.657 6.068 622.131 6.068C623.717 6.068 625.066 6.39667 626.177 7.054C627.31 7.68867 628.171 8.584 628.761 9.74C629.373 10.896 629.679 12.256 629.679 13.82C629.679 14.1373 629.667 14.4433 629.645 14.738C629.622 15.0327 629.588 15.2933 629.543 15.52H615.569V13.344H627.877L627.163 14.126C627.163 12.1767 626.709 10.7147 625.803 9.74C624.919 8.76533 623.717 8.278 622.199 8.278C621.179 8.278 620.227 8.52733 619.343 9.026C618.481 9.52467 617.79 10.25 617.269 11.202C616.747 12.154 616.487 13.3213 616.487 14.704C616.487 16.132 616.77 17.322 617.337 18.274C617.903 19.226 618.674 19.9513 619.649 20.45C620.623 20.926 621.723 21.164 622.947 21.164C623.944 21.164 624.839 21.028 625.633 20.756C626.449 20.4613 627.231 20.076 627.979 19.6L628.999 21.436C628.183 21.98 627.242 22.4447 626.177 22.83C625.134 23.2153 623.944 23.408 622.607 23.408ZM645.169 23.408C643.56 23.408 642.291 23.1247 641.361 22.558C640.432 21.9687 639.763 21.164 639.355 20.144C638.97 19.124 638.777 17.934 638.777 16.574V8.754H634.119V6.646L638.879 6.476L639.253 1.172H641.565V6.476H649.691V8.754H641.565V16.608C641.565 17.5827 641.69 18.41 641.939 19.09C642.189 19.77 642.619 20.28 643.231 20.62C643.843 20.96 644.682 21.13 645.747 21.13C646.541 21.13 647.255 21.062 647.889 20.926C648.524 20.79 649.136 20.6087 649.725 20.382L650.337 22.422C649.589 22.694 648.796 22.9207 647.957 23.102C647.141 23.306 646.212 23.408 645.169 23.408ZM660.524 23.408C659.504 23.408 658.563 23.2267 657.702 22.864C656.841 22.4787 656.161 21.9347 655.662 21.232C655.163 20.5293 654.914 19.6907 654.914 18.716C654.914 16.8573 655.843 15.452 657.702 14.5C659.561 13.5253 662.621 12.868 666.882 12.528C666.859 11.78 666.701 11.0887 666.406 10.454C666.134 9.81933 665.681 9.32067 665.046 8.958C664.411 8.57267 663.561 8.38 662.496 8.38C661.793 8.38 661.091 8.482 660.388 8.686C659.708 8.86733 659.051 9.11667 658.416 9.434C657.804 9.72867 657.237 10.0347 656.716 10.352L655.628 8.448C656.172 8.08533 656.829 7.72267 657.6 7.36C658.393 6.97467 659.243 6.66867 660.15 6.442C661.057 6.19267 661.997 6.068 662.972 6.068C664.491 6.068 665.737 6.35133 666.712 6.918C667.709 7.48467 668.446 8.278 668.922 9.298C669.421 10.2953 669.67 11.4853 669.67 12.868V23H667.392L667.154 20.756H667.052C666.145 21.4813 665.125 22.1047 663.992 22.626C662.859 23.1473 661.703 23.408 660.524 23.408ZM661.272 21.164C662.224 21.164 663.165 20.9487 664.094 20.518C665.023 20.0873 665.953 19.4867 666.882 18.716V14.364C664.525 14.568 662.666 14.8513 661.306 15.214C659.969 15.5767 659.017 16.0413 658.45 16.608C657.906 17.152 657.634 17.7867 657.634 18.512C657.634 19.124 657.804 19.634 658.144 20.042C658.484 20.4273 658.926 20.7107 659.47 20.892C660.037 21.0733 660.637 21.164 661.272 21.164Z" fill="#473BF0"/>
    </svg>
    