<svg width="559" height="96" viewBox="0 0 559 96" fill="none" xmlns="http://www.w3.org/2000/svg">
    <path d="M0 11.8335H2.46974L9.1125 51.4292C9.39638 53.7 9.70864 55.9423 10.0493 58.1562C10.4467 60.3702 10.7874 62.6125 11.0713 64.8833H11.2416C11.9797 62.6125 12.6894 60.3702 13.3707 58.1562C14.052 55.9423 14.7049 53.7 15.3294 51.4292L22.8238 26.5648H25.8045L33.4693 51.4292C34.0938 53.7 34.7183 55.9707 35.3429 58.2414C36.0242 60.4554 36.7055 62.6693 37.3868 64.8833H37.7274C38.0113 62.6693 38.3236 60.4554 38.6642 58.2414C39.0617 55.9707 39.4023 53.7 39.6862 51.4292L46.0735 11.8335H48.458L39.1752 68.119H35.5984L26.9968 39.9337C26.5426 38.2874 26.1168 36.6695 25.7194 35.08C25.322 33.4905 24.8961 31.8726 24.4419 30.2264H24.1864C23.7322 31.8726 23.278 33.4905 22.8238 35.08C22.4264 36.6695 21.9722 38.2874 21.4612 39.9337L13.1152 68.119H9.53831L0 11.8335Z" fill="#361C1C"/>
    <path d="M62.7256 30.0238H65.7419L66.1388 39.3889H66.2975C68.3613 36.373 70.9013 33.9127 73.9176 32.0079C76.9868 30.0503 80.4264 29.0714 84.2365 29.0714C85.5065 29.0714 86.7765 29.1772 88.0465 29.3889C89.3694 29.6005 90.6394 30.0238 91.8565 30.6587L90.9834 33.754C89.6075 33.2778 88.4169 32.9339 87.4115 32.7222C86.4061 32.5106 85.1625 32.4048 83.6808 32.4048C80.5058 32.4048 77.4631 33.3042 74.5526 35.1032C71.6951 36.9021 68.9434 39.9709 66.2975 44.3095V68.119H62.7256V30.0238Z" fill="#361C1C"/>
    <path d="M121.671 68.119V35.6587H104.287V29.3095H129.529V68.119H121.671ZM124.925 21.7698C123.232 21.7698 121.83 21.2672 120.718 20.2619C119.607 19.2037 119.051 17.828 119.051 16.1349C119.051 14.4418 119.607 13.0926 120.718 12.0873C121.83 11.0291 123.232 10.5 124.925 10.5C126.619 10.5 128.021 11.0291 129.132 12.0873C130.243 13.0926 130.799 14.4418 130.799 16.1349C130.799 17.828 130.243 19.2037 129.132 20.2619C128.021 21.2672 126.619 21.7698 124.925 21.7698Z" fill="#361C1C"/>
    <path d="M176.171 69.0714C172.255 69.0714 169.159 68.3836 166.884 67.0079C164.661 65.6323 163.074 63.7275 162.121 61.2937C161.169 58.8598 160.693 56.0291 160.693 52.8016V35.6587H150.056V29.7857L161.01 29.3095L162.042 17.0873H168.551V29.3095H186.887V35.6587H168.551V52.8016C168.551 54.9709 168.842 56.8228 169.424 58.3571C170.006 59.8386 170.985 60.9497 172.361 61.6905C173.737 62.3783 175.589 62.7222 177.917 62.7222C179.663 62.7222 181.251 62.5899 182.68 62.3254C184.108 62.0079 185.484 61.6111 186.807 61.1349L188.395 66.8492C186.648 67.4312 184.77 67.9339 182.759 68.3571C180.801 68.8333 178.605 69.0714 176.171 69.0714Z" fill="#361C1C"/>
    <path d="M218.765 69.0714C214.796 69.0714 211.197 68.2778 207.97 66.6905C204.742 65.0503 202.175 62.7222 200.27 59.7063C198.365 56.6376 197.413 52.9339 197.413 48.5952C197.413 44.3624 198.365 40.7381 200.27 37.7222C202.175 34.6534 204.662 32.2989 207.731 30.6587C210.801 29.0185 214.081 28.1984 217.574 28.1984C221.437 28.1984 224.691 28.9921 227.337 30.5794C230.036 32.1667 232.073 34.3624 233.449 37.1667C234.878 39.918 235.592 43.0926 235.592 46.6905C235.592 47.5899 235.539 48.463 235.434 49.3095C235.381 50.1032 235.301 50.7646 235.195 51.2937H204.001V44.7857H229.322L227.575 46.8492C227.575 42.9868 226.702 40.1032 224.956 38.1984C223.263 36.2407 220.881 35.2619 217.812 35.2619C215.643 35.2619 213.685 35.7645 211.938 36.7698C210.245 37.7751 208.896 39.2831 207.89 41.2936C206.885 43.2513 206.382 45.6852 206.382 48.5952C206.382 51.6111 206.938 54.0979 208.049 56.0556C209.213 58.0132 210.801 59.4947 212.811 60.5C214.875 61.5053 217.257 62.0079 219.955 62.0079C222.019 62.0079 223.924 61.7169 225.67 61.1349C227.417 60.5529 229.163 59.7593 230.909 58.754L234.005 64.4683C231.941 65.791 229.613 66.9021 227.02 67.8016C224.427 68.6482 221.675 69.0714 218.765 69.0714Z" fill="#361C1C"/>
    <path d="M245.166 16.5317H265.168C267.92 16.5317 270.539 16.8227 273.027 17.4048C275.567 17.9339 277.763 18.8862 279.615 20.2619C281.52 21.5847 283.028 23.3571 284.139 25.5794C285.25 27.7487 285.806 30.4471 285.806 33.6746C285.806 36.8492 285.224 39.5741 284.06 41.8492C282.949 44.1243 281.44 46.0026 279.535 47.4841C277.63 48.9127 275.434 49.9974 272.947 50.7381C270.46 51.4259 267.867 51.7698 265.168 51.7698H258.818V68.119H245.166V16.5317ZM264.533 40.9762C267.232 40.9762 269.217 40.3413 270.487 39.0714C271.81 37.8016 272.471 36.0026 272.471 33.6746C272.471 31.3466 271.783 29.7063 270.407 28.754C269.031 27.8016 267.073 27.3254 264.533 27.3254H258.818V40.9762H264.533Z" fill="#361C1C"/>
    <path d="M291.093 48.2778C291.093 44.9974 291.649 42.0608 292.76 39.4683C293.924 36.8757 295.459 34.7063 297.364 32.9603C299.269 31.1614 301.439 29.8122 303.873 28.9127C306.36 27.9603 308.926 27.4841 311.572 27.4841C314.165 27.4841 316.679 27.9603 319.113 28.9127C321.6 29.8122 323.796 31.1614 325.701 32.9603C327.606 34.7063 329.141 36.8757 330.305 39.4683C331.469 42.0608 332.051 44.9974 332.051 48.2778C332.051 51.5582 331.469 54.4947 330.305 57.0873C329.141 59.6799 327.606 61.8757 325.701 63.6746C323.796 65.4206 321.6 66.7698 319.113 67.7222C316.679 68.6217 314.165 69.0714 311.572 69.0714C308.926 69.0714 306.36 68.6217 303.873 67.7222C301.439 66.7698 299.269 65.4206 297.364 63.6746C295.459 61.8757 293.924 59.6799 292.76 57.0873C291.649 54.4947 291.093 51.5582 291.093 48.2778ZM305.063 48.2778C305.063 51.2937 305.566 53.7011 306.572 55.5C307.577 57.246 309.244 58.119 311.572 58.119C313.901 58.119 315.567 57.246 316.573 55.5C317.578 53.7011 318.081 51.2937 318.081 48.2778C318.081 45.2619 317.578 42.881 316.573 41.1349C315.567 39.336 313.901 38.4365 311.572 38.4365C309.244 38.4365 307.577 39.336 306.572 41.1349C305.566 42.881 305.063 45.2619 305.063 48.2778Z" fill="#361C1C"/>
    <path d="M339.72 48.4365C339.72 45.209 340.275 42.3254 341.386 39.7857C342.551 37.246 344.085 35.1032 345.99 33.3571C347.895 31.5582 350.065 30.1825 352.499 29.2302C354.986 28.2778 357.553 27.8016 360.198 27.8016C363.215 27.8016 365.887 28.2778 368.215 29.2302C370.544 30.1825 372.475 31.5053 374.01 33.1984C375.544 34.8915 376.709 36.9021 377.502 39.2302C378.296 41.5053 378.693 43.9921 378.693 46.6905C378.693 47.7487 378.64 48.7275 378.534 49.627C378.428 50.4735 378.323 51.1349 378.217 51.6111H351.705C352.287 54.627 353.61 56.8228 355.674 58.1984C357.738 59.5212 360.225 60.1825 363.135 60.1825C364.935 60.1825 366.628 59.9709 368.215 59.5476C369.856 59.0714 371.549 58.3836 373.295 57.4841L377.105 64.4683C374.883 65.8968 372.396 67.0344 369.644 67.881C366.893 68.6746 364.194 69.0714 361.548 69.0714C358.479 69.0714 355.621 68.6217 352.975 67.7222C350.329 66.7698 348.028 65.4206 346.07 63.6746C344.112 61.8757 342.551 59.7063 341.386 57.1667C340.275 54.627 339.72 51.7169 339.72 48.4365ZM368.136 44.3889C368.136 42.1138 367.527 40.2619 366.31 38.8333C365.093 37.4048 363.135 36.6905 360.437 36.6905C358.32 36.6905 356.415 37.3254 354.722 38.5952C353.081 39.8122 352.023 41.7434 351.547 44.3889H368.136Z" fill="#361C1C"/>
    <path d="M396.76 37.881H386.917V29.2302L397.315 28.754L398.823 18.2778H408.428V28.754H425.017V37.881H408.428V51.6905C408.428 54.7063 409.089 56.8492 410.412 58.119C411.735 59.336 413.825 59.9444 416.683 59.9444C418.218 59.9444 419.62 59.8122 420.89 59.5476C422.213 59.2831 423.456 58.9392 424.621 58.5159L426.684 66.9286C424.938 67.4577 422.98 67.9339 420.811 68.3571C418.641 68.8333 416.286 69.0714 413.746 69.0714C410.624 69.0714 407.978 68.6482 405.809 67.8016C403.639 66.955 401.866 65.791 400.49 64.3095C399.167 62.7751 398.215 60.9497 397.633 58.8333C397.051 56.7169 396.76 54.3624 396.76 51.7698V37.881Z" fill="#361C1C"/>
    <path d="M441.497 68.119V29.3095H448.005L448.64 38.3571H448.879C450.889 35.1825 453.35 32.7222 456.26 30.9762C459.171 29.2302 462.346 28.3571 465.786 28.3571C467.267 28.3571 468.617 28.4894 469.834 28.754C471.051 29.0185 472.241 29.4153 473.406 29.9444L471.659 36.6905C470.336 36.2143 469.199 35.8968 468.246 35.7381C467.294 35.5265 466.077 35.4206 464.595 35.4206C461.79 35.4206 459.092 36.2143 456.499 37.8016C453.906 39.3889 451.524 42.1402 449.355 46.0556V68.119H441.497Z" fill="#361C1C"/>
    <path d="M484.408 81.6111C484.884 81.7698 485.44 81.9021 486.075 82.0079C486.763 82.1667 487.451 82.246 488.139 82.246C491.102 82.246 493.536 81.2937 495.441 79.3889C497.346 77.4841 498.881 75.0767 500.045 72.1667L501.394 68.8333L482.9 30.0238H486.551L497.664 53.9921C498.404 55.5794 499.225 57.3519 500.124 59.3095C501.077 61.2143 502.003 63.0132 502.902 64.7063H503.22C503.961 63.0132 504.702 61.2143 505.442 59.3095C506.236 57.4048 506.977 55.6323 507.665 53.9921L517.587 30.0238H521L503.061 72.881C502.479 74.4683 501.738 76.0026 500.839 77.4841C499.992 79.0185 498.96 80.3677 497.743 81.5318C496.526 82.7487 495.097 83.7011 493.457 84.3889C491.869 85.1296 490.07 85.5 488.059 85.5C487.265 85.5 486.445 85.4206 485.598 85.2619C484.752 85.1561 484.037 84.9709 483.455 84.7064L484.408 81.6111Z" fill="#361C1C"/>
    <rect x="553" width="6" height="96" fill="#FA6900"/>
    </svg>